{
    "asset": {
        "copyright": "2023 (c) Adobe Inc.",
        "generator": "Adobe Substance 3D Stager - 4d644d49b1c62f04149d49edf884fdc05b05c7fc",
        "version": "2.0"
    },
    "accessors": [
        {
            "bufferView": 0,
            "componentType": 5126,
            "count": 16119,
            "type": "VEC3",
            "max": [
                0.23767460882663728,
                0.008222450502216816,
                0.42765742540359499
            ],
            "min": [
                -0.2678917348384857,
                -0.49734392762184145,
                -0.09417436271905899
            ]
        },
        {
            "bufferView": 1,
            "componentType": 5126,
            "count": 16119,
            "type": "VEC3"
        },
        {
            "bufferView": 2,
            "componentType": 5126,
            "count": 16119,
            "type": "VEC2"
        },
        {
            "bufferView": 3,
            "componentType": 5125,
            "count": 75078,
            "type": "SCALAR",
            "max": [
                15937.0
            ],
            "min": [
                0.0
            ]
        },
        {
            "bufferView": 4,
            "componentType": 5125,
            "count": 1320,
            "type": "SCALAR",
            "max": [
                16111.0
            ],
            "min": [
                13384.0
            ]
        },
        {
            "bufferView": 5,
            "componentType": 5125,
            "count": 138,
            "type": "SCALAR",
            "max": [
                16118.0
            ],
            "min": [
                13742.0
            ]
        }
    ],
    "bufferViews": [
        {
            "buffer": 0,
            "byteOffset": 0,
            "byteLength": 193428,
            "target": 34962
        },
        {
            "buffer": 0,
            "byteOffset": 193428,
            "byteLength": 193428,
            "target": 34962
        },
        {
            "buffer": 0,
            "byteOffset": 386856,
            "byteLength": 128952,
            "target": 34962
        },
        {
            "buffer": 0,
            "byteOffset": 515808,
            "byteLength": 300312,
            "target": 34963
        },
        {
            "buffer": 0,
            "byteOffset": 816120,
            "byteLength": 5280,
            "target": 34963
        },
        {
            "buffer": 0,
            "byteOffset": 821400,
            "byteLength": 552,
            "target": 34963
        }
    ],
    "buffers": [
        {
            "byteLength": 821952,
            "uri": "Untitled_binary.bin"
        }
    ],
    "cameras": [
        {
            "perspective": {
                "znear": 0.000017499742170912215,
                "yfov": 0.3995896875858307,
                "zfar": 2.0,
                "aspectRatio": 1.7777777910232545
            },
            "type": "perspective",
            "name": "working_cam"
        }
    ],
    "images": [
        {
            "name": "Dragonite_base_color",
            "uri": "Untitled_images/Dragonite_base_color.jpg",
            "mimeType": "image/jpeg"
        }
    ],
    "materials": [
        {
            "pbrMetallicRoughness": {
                "baseColorTexture": {
                    "index": 0
                },
                "metallicFactor": 0.0
            },
            "name": "Dragonite",
            "doubleSided": true,
            "extensions": {
                "KHR_materials_ior": {
                    "ior": 1.4500000476837159
                }
            }
        },
        {
            "pbrMetallicRoughness": {
                "metallicFactor": 0.0,
                "roughnessFactor": 0.5
            },
            "name": "Teath",
            "doubleSided": true
        },
        {
            "pbrMetallicRoughness": {
                "baseColorFactor": [
                    0.8000315427780151,
                    0.025027386844158174,
                    0.015104496851563454,
                    1.0
                ],
                "metallicFactor": 0.0,
                "roughnessFactor": 0.5
            },
            "name": "Material%2E001",
            "doubleSided": true
        }
    ],
    "meshes": [
        {
            "name": "Main_n3d",
            "primitives": [
                {
                    "attributes": {
                        "POSITION": 0,
                        "NORMAL": 1,
                        "TEXCOORD_0": 2
                    },
                    "indices": 3,
                    "material": 0
                },
                {
                    "attributes": {
                        "NORMAL": 1,
                        "POSITION": 0,
                        "TEXCOORD_0": 2
                    },
                    "indices": 4,
                    "material": 1
                },
                {
                    "attributes": {
                        "POSITION": 0,
                        "NORMAL": 1,
                        "TEXCOORD_0": 2
                    },
                    "indices": 5,
                    "material": 2
                }
            ]
        }
    ],
    "nodes": [
        {
            "translation": [
                0.550000011920929,
                0.3199999928474426,
                0.550000011920929
            ],
            "rotation": [
                -0.12059047073125839,
                0.379409521818161,
                0.04995020851492882,
                0.9159756302833557
            ],
            "scale": [
                1.0,
                1.0,
                0.9999999403953552
            ],
            "camera": 0,
            "name": "working_cam_n3d"
        },
        {
            "translation": [
                0.015108556486666203,
                0.015149150975048542,
                0.18195761740207673
            ],
            "rotation": [
                0.9992513060569763,
                0.0,
                0.0,
                0.03868813440203667
            ],
            "scale": [
                1.0,
                1.0000003576278687,
                1.0000003576278687
            ],
            "mesh": 0,
            "name": "Main_n3d"
        }
    ],
    "samplers": [
        {}
    ],
    "scenes": [
        {
            "nodes": [
                0,
                1
            ],
            "name": "scene"
        }
    ],
    "textures": [
        {
            "name": "tmp_image_pie_f147_e320_7e04",
            "sampler": 0,
            "source": 0
        }
    ],
    "scene": 0,
    "extensionsUsed": [
        "KHR_materials_ior"
    ]
}